PathFileType	4	(X/Y/Z)	C:/Users/opensim2020/Desktop/walking_exp_matlab/subject02_walking08_straight_01.trc	
DataRate	CameraRate	NumFrames	NumMarkers	Units	OrigDataRate	OrigDataStartFrame	OrigNumFrames	
100.00	100.00	9	41	mm	100.00	802	324	
Frame#	Time	LFHD			RFHD			LBHD			RBHD			C7			T10			CLAV			STRN			RBAK			LSHO			LUPA			LELB			LFRM			LWRA			LWRB			LFIN			RSHO			RUPA			RELB			RFRM			RWRA			RWRB			RFIN			LASI			RASI			LPSI			RPSI			LTHI			LKNE			LTIB			LANK			LHEE			LTOE			RTHI			RKNE			RTIB			RANK			RHEE			RTOE			*39			*40			
		X1	Y1	Z1	X2	Y2	Z2	X3	Y3	Z3	X4	Y4	Z4	X5	Y5	Z5	X6	Y6	Z6	X7	Y7	Z7	X8	Y8	Z8	X9	Y9	Z9	X10	Y10	Z10	X11	Y11	Z11	X12	Y12	Z12	X13	Y13	Z13	X14	Y14	Z14	X15	Y15	Z15	X16	Y16	Z16	X17	Y17	Z17	X18	Y18	Z18	X19	Y19	Z19	X20	Y20	Z20	X21	Y21	Z21	X22	Y22	Z22	X23	Y23	Z23	X24	Y24	Z24	X25	Y25	Z25	X26	Y26	Z26	X27	Y27	Z27	X28	Y28	Z28	X29	Y29	Z29	X30	Y30	Z30	X31	Y31	Z31	X32	Y32	Z32	X33	Y33	Z33	X34	Y34	Z34	X35	Y35	Z35	X36	Y36	Z36	X37	Y37	Z37	X38	Y38	Z38	X39	Y39	Z39	X40	Y40	Z40	X41	Y41	Z41	

244	2.430	-1152.25989	523.82269	1744.63989	-1009.90924	509.16135	1724.77136	-1175.14343	394.93997	1670.09302	-1035.65637	367.87073	1648.89905	-1100.66382	332.41162	1528.86133	-1095.86938	281.59027	1250.80334	-1114.21826	470.35760	1460.12244	-1107.46680	524.15143	1289.24951	-1036.60437	276.14694	1352.95911	-1282.91382	403.02893	1503.07336	-1376.75342	423.86359	1306.63123	-1400.67676	452.68680	1170.14685	-1417.96814	501.05493	1047.70544	-1387.26196	588.66272	943.88074	-1423.37817	546.33789	933.79010	-1430.63147	585.59717	881.29669	-915.90509	414.23685	1492.78479	-833.75629	393.73004	1300.11841	-815.65253	417.23499	1154.15161	-802.84259	467.04922	1043.27600	-829.89673	537.57922	929.38580	-795.90833	493.54330	915.52899	-798.18036	542.52881	861.46869	-1238.83105	522.07831	994.71527	-979.77539	524.55939	984.11603	-1150.67004	311.34885	1032.44861	-1035.92151	307.58231	1031.34583	-1271.53271	454.53781	680.05933	-1234.96826	413.99738	479.16580	-1226.74744	351.98813	293.47235	-1179.82605	348.36145	72.04206	-1127.99683	312.50168	44.69390	-1191.60034	505.28348	36.80722	-890.08813	505.76410	686.02161	-904.80450	558.74518	488.84561	-904.75507	471.80725	323.79730	-937.43878	411.94919	140.25854	-999.69281	381.08209	86.75405	-887.29810	535.97382	56.01579	-1072.72400	413.18695	1809.06848	-3360.38647	2845.17163	1033.95020 
245	2.440	-1151.88977	531.87921	1744.01038	-1009.57477	516.59094	1723.79749	-1175.38708	402.65814	1670.26184	-1036.09619	374.93103	1648.73572	-1101.47131	339.32620	1528.59290	-1096.31848	287.21909	1250.80286	-1114.79333	477.19293	1459.68921	-1108.18042	530.65137	1288.74133	-1037.46924	282.75620	1352.82776	-1283.40674	410.32626	1503.00122	-1377.71692	433.27448	1307.15662	-1401.49377	463.98172	1170.82520	-1418.02991	514.70142	1049.19141	-1385.98389	603.73505	946.96320	-1422.54480	562.19257	936.00562	-1429.53711	602.52338	884.52423	-916.50079	420.66907	1492.52295	-834.41675	400.03824	1299.75793	-816.21997	423.16217	1153.86548	-803.37677	472.87317	1042.54663	-830.19696	543.50726	929.01453	-796.52014	499.30975	915.01135	-798.42041	548.49408	861.12628	-1239.30676	528.11395	993.85492	-980.01068	531.14191	984.08752	-1150.76404	317.44675	1032.12708	-1036.20325	313.80112	1030.98157	-1271.58777	458.36279	679.44574	-1234.70215	416.84604	478.83981	-1226.39111	353.53406	293.60211	-1179.63037	348.52869	72.17619	-1127.77051	312.58453	44.85036	-1191.61475	505.33450	36.79761	-890.63739	515.02667	686.57184	-906.17230	570.24866	489.54010	-904.89453	489.15060	321.24054	-936.55359	435.76740	135.62886	-998.58380	406.51733	80.83017	-887.51544	563.36560	56.07083	-1072.36914	421.33051	1808.73328	-3360.31860	2845.22827	1034.08252 
246	2.450	-1151.35815	539.97601	1743.27356	-1009.20972	524.14893	1722.62830	-1175.69324	410.36639	1670.24951	-1036.56226	382.00159	1648.76685	-1102.11719	346.30148	1528.38379	-1096.83923	294.71786	1250.54651	-1115.28967	484.10626	1459.21143	-1108.73865	537.18695	1288.13843	-1038.23340	289.27246	1352.59375	-1283.89417	417.71167	1503.01526	-1378.29724	442.51889	1307.54468	-1402.22107	475.06918	1171.47412	-1417.88074	528.07971	1050.55957	-1384.62378	618.54279	950.15839	-1421.66895	577.52850	938.31146	-1427.89392	618.91388	887.47748	-916.99561	427.26218	1491.98633	-835.06830	406.16357	1299.18225	-816.73083	429.05780	1153.37976	-803.76410	478.78976	1042.17944	-830.42084	549.44904	928.54688	-796.76355	505.26303	914.56158	-798.68115	554.36963	860.65967	-1239.60229	534.14459	993.13428	-980.19611	537.76068	984.09259	-1150.87659	323.55548	1031.70923	-1036.42700	320.14368	1030.53784	-1271.56555	462.27087	678.82025	-1234.40466	419.65836	478.53888	-1226.06873	355.04343	293.77112	-1179.42236	348.67722	72.33414	-1127.26099	312.68240	45.01833	-1191.61133	505.70334	36.82514	-891.06958	524.14417	687.05841	-907.47717	581.50116	490.02823	-904.95886	506.41254	318.76285	-935.82422	459.83942	131.19756	-997.43115	431.93384	75.11961	-887.83398	590.59155	56.36325	-1071.97266	429.49747	1808.31836	-3356.99438	2845.77759	1034.04224 
247	2.460	-1150.81104	548.07098	1742.48499	-1008.12469	531.64398	1721.26831	-1175.75391	418.14355	1670.24280	-1036.76160	389.29645	1648.42786	-1102.53943	353.33737	1528.24243	-1097.22095	301.30096	1250.32141	-1115.65051	490.98361	1458.60889	-1109.21655	543.76465	1287.45459	-1038.84094	295.90921	1352.42578	-1284.21326	425.08078	1502.77063	-1378.75647	451.60733	1307.85022	-1402.75122	486.00836	1172.06824	-1417.61353	541.23145	1051.99268	-1383.11206	633.17712	953.36414	-1420.57544	592.59991	940.56281	-1426.40442	635.16882	890.79224	-917.46912	433.99286	1491.40881	-835.61475	412.48160	1298.67761	-817.12573	434.88034	1152.84412	-804.35156	484.61984	1041.64355	-830.62903	555.29236	927.98627	-797.20874	511.07251	913.97162	-798.77191	560.12744	860.08875	-1239.83765	540.27240	992.45837	-980.48822	544.41931	983.97534	-1150.89795	329.70123	1031.22144	-1036.53223	326.48267	1030.05896	-1271.39905	466.27780	678.32709	-1234.18591	422.42676	478.24713	-1225.82483	356.54196	293.93726	-1179.19336	348.83453	72.49143	-1126.99646	312.74921	45.17440	-1191.58960	505.53687	36.72717	-891.38763	533.22992	687.46997	-908.73291	592.15314	490.41171	-904.90216	523.49512	316.45215	-934.90631	483.64417	127.12358	-995.97247	456.99930	70.12096	-888.33698	617.65027	57.06345	-1071.64368	437.56146	1807.90637			 
248	2.470	-1150.10767	556.18048	1741.62561	-1007.96722	539.08954	1719.97986	-1175.59070	426.04630	1670.19604	-1036.94580	396.66095	1647.71069	-1102.93677	360.37833	1527.90308	-1097.46191	306.88242	1250.13757	-1115.96265	497.93039	1457.97595	-1109.55054	550.29736	1286.71057	-1039.29541	302.55920	1352.09692	-1284.44922	432.44089	1502.37488	-1379.19385	460.53592	1308.05725	-1403.16821	496.69662	1172.57166	-1417.11768	554.02881	1053.29749	-1381.34338	647.13110	956.37659	-1419.18201	607.30731	942.78064	-1424.51868	650.90234	893.82904	-917.73743	440.69849	1490.74243	-836.07336	418.84360	1298.03699	-817.31274	441.04492	1152.17969	-804.43536	490.48389	1040.97107	-830.63965	561.05127	927.24030	-797.37872	516.81268	913.30139	-798.68353	565.95947	859.55377	-1239.63977	545.90826	991.75940	-980.73572	551.12152	983.73853	-1150.77771	335.82455	1030.55237	-1036.57568	332.94962	1029.56226	-1271.27063	470.24805	677.71405	-1233.95410	425.13727	477.96292	-1225.52734	357.99670	294.11905	-1179.00940	348.96774	72.65780	-1126.89465	312.68832	45.63048	-1191.61218	505.51608	36.69852	-891.55255	542.05981	687.69159	-910.04425	602.71826	490.62421	-904.92902	540.46783	314.21411	-933.87494	507.35971	123.43484	-994.69952	482.13440	65.51723	-888.98022	644.45520	58.29139	-1070.94702	445.91306	1807.24768			 
249	2.480	-1149.38037	564.28156	1740.73059	-1007.21625	546.74146	1718.93237	-1175.57544	433.87473	1670.09424	-1036.56665	404.25281	1647.27112	-1103.21472	367.52948	1527.55664	-1097.74829	314.42599	1249.75415	-1116.16736	504.89377	1457.29346	-1109.78491	556.90790	1285.90796	-1039.79993	309.29364	1351.79089	-1284.62866	439.88654	1502.12122	-1379.65320	469.31583	1308.27832	-1403.21814	507.13168	1172.97485	-1416.49316	566.56628	1054.49438	-1379.44629	660.89374	959.36279	-1417.71240	621.66925	944.90283	-1422.33752	666.21326	896.66486	-918.02563	447.58881	1490.00720	-836.53918	425.27588	1297.45410	-817.72839	446.89856	1151.47827	-804.58136	496.25348	1040.19861	-830.67151	566.85596	926.43604	-797.45856	522.52673	912.47375	-798.77661	571.49530	858.70636	-1239.64990	551.93402	991.16742	-980.93890	557.90588	983.36194	-1150.78674	342.05002	1030.26733	-1036.50525	339.50131	1029.06958	-1271.24939	474.19159	677.12445	-1233.69775	427.88309	477.64551	-1225.21582	359.49231	294.27805	-1178.86914	349.12537	72.82137	-1126.63049	312.76636	45.82554	-1191.63269	505.52841	36.67409	-891.66547	550.65057	687.72302	-911.28851	613.26105	490.70236	-904.93005	557.03339	312.15714	-932.97150	530.87708	120.03157	-993.23877	507.00714	61.24758	-889.68268	671.04095	59.93243	-1070.45459	454.03970	1806.50720	-3356.87256	2845.99365	1033.98413 
250	2.490	-1148.57605	572.41333	1739.78125	-1006.51074	554.27454	1717.25891	-1175.45361	441.77747	1669.83691	-1036.52515	411.64725	1646.70264	-1103.45862	374.70911	1527.11670	-1098.00842	321.08139	1249.32397	-1116.30249	511.88049	1456.53979	-1109.94812	563.53076	1285.11377	-1040.40466	316.07193	1351.48938	-1284.73987	447.25797	1501.64624	-1379.53064	477.90863	1308.15540	-1403.51306	517.41492	1173.32922	-1415.99292	578.78766	1055.83496	-1377.45508	674.12604	962.12402	-1415.97449	635.48285	946.85931	-1420.16345	681.09302	899.55255	-918.15161	454.54425	1489.22278	-836.62372	431.76904	1296.68481	-817.88416	452.87720	1150.71436	-804.70819	502.23087	1039.34045	-830.62909	572.68988	925.52429	-797.65179	528.05872	911.51770	-798.88153	577.27618	857.84760	-1240.01892	558.17664	990.68829	-981.20898	564.67456	982.92218	-1150.52930	348.25134	1029.75757	-1036.22986	346.11697	1028.56860	-1271.28796	478.03806	676.58466	-1233.46228	430.62543	477.36902	-1224.98340	361.04880	294.44003	-1178.73926	349.28485	73.02451	-1126.43140	312.81326	46.06077	-1191.67773	505.44833	36.67336	-891.68909	559.19385	687.73981	-912.46613	623.07410	490.63150	-904.89838	573.59528	310.21613	-931.94745	554.34766	117.04848	-991.81421	532.20795	57.19936	-890.54492	697.28046	62.03577	-1069.57629	462.32236	1805.88672			 
251	2.500	-1147.72449	580.64532	1738.75696	-1005.53284	561.97711	1716.01343	-1175.22327	449.64645	1669.43311	-1037.18005	418.34116	1646.13696	-1103.68909	381.80579	1526.56299	-1098.08264	327.75214	1248.86890	-1116.32410	518.89984	1455.79773	-1109.98950	570.22894	1284.30273	-1040.34839	323.19748	1350.88098	-1284.78027	454.68689	1501.27295	-1379.76660	486.43710	1308.17175	-1403.24316	527.37695	1173.50269	-1414.66284	590.63068	1056.58264	-1375.23230	687.03815	964.70844	-1414.01062	648.98889	948.72803	-1417.55005	695.33368	902.01361	-918.24506	461.57590	1488.38562	-836.70453	438.47977	1295.79126	-818.08575	458.96240	1149.90015	-804.73309	508.10083	1038.42566	-830.43817	578.37061	924.45300	-797.65784	533.92157	910.68024	-798.55048	582.73163	856.71979	-1239.87683	563.80756	989.79407	-981.40228	571.60999	982.36053	-1150.10742	354.52750	1029.23425	-1035.86340	352.81833	1028.11926	-1271.26331	481.83313	675.99402	-1233.18555	433.39191	477.07794	-1224.81421	362.59201	294.69824	-1178.56726	349.43405	73.20119	-1126.24353	312.84766	46.37111	-1191.73059	505.46942	36.66060	-891.71381	567.36768	687.47028	-913.82391	632.83325	490.46423	-904.73706	589.87878	308.37759	-930.87573	577.52209	114.52425	-989.90863	556.11603	53.99728	-891.51501	722.97314	64.49117	-1068.95630	470.54044	1805.07117	-3356.92065	2845.98120	1033.93188 
252	2.510	-1146.78455	588.80994	1737.73840	-1004.65613	569.69348	1714.42383	-1174.76135	457.67917	1669.13818	-1036.79480	426.00208	1645.45740	-1103.73560	389.00049	1526.11243	-1098.06665	334.55927	1248.39880	-1116.27686	525.97742	1455.00195	-1110.00342	576.93634	1283.43787	-1040.39551	330.05032	1350.36023	-1284.69775	462.05011	1500.78638	-1379.15234	494.64822	1307.62793	-1403.21912	537.15051	1173.62817	-1413.90771	602.06519	1057.62537	-1373.03149	699.56750	967.33771	-1411.85339	662.26123	950.52521	-1415.16040	709.28918	904.80530	-918.17334	468.61127	1487.51147	-836.71948	445.14169	1294.97314	-818.00806	465.21603	1148.96704	-804.62280	513.94781	1037.45422	-830.31311	584.27441	923.31830	-797.38336	539.62262	909.69788	-798.54474	588.37317	855.52325	-1239.89380	569.66034	988.94629	-981.66455	578.69385	981.75574	-1149.53674	360.82501	1028.74036	-1035.28894	359.65411	1027.56982	-1271.16370	485.63513	675.39587	-1232.90698	436.12680	476.76611	-1224.59448	364.16391	294.85425	-1178.41345	349.60986	73.37938	-1126.06836	312.88129	46.61956	-1191.76367	505.45767	36.64064	-891.81573	575.12213	686.89978	-915.05981	642.29572	490.11630	-904.52222	606.10413	306.71506	-929.82544	600.50275	112.37824	-988.26727	580.27985	50.95817	-892.72485	748.30078	67.32210	-1068.06970	478.81464	1804.44739			 
